<svg xmlns="http://www.w3.org/2000/svg" viewBox="0 0 50 50" enable-background="new 0 0 50 50">
    <path fill="#212121" style="text-indent:0;text-align:start;line-height:normal;text-transform:none;block-progression:tb;-inkscape-font-specification:Bitstream Vera Sans" d="M 7 8 C 4.2545455 8 2 10.254545 2 13 L 2 37 C 2 39.745455 4.2545455 42 7 42 L 11.09375 42 C 11.230389 43.204771 11.215056 44.315003 10.90625 45.25 C 10.527079 46.398046 9.8220562 47.363016 8.5 48.15625 A 1.0001 1.0001 0 0 0 9 50 C 13.243507 50 18.10627 47.785512 20.5625 42 L 43 42 C 45.745455 42 48 39.745455 48 37 L 48 13 C 48 10.254545 45.745455 8 43 8 L 7 8 z M 7 10 L 43 10 C 44.654545 10 46 11.345455 46 13 L 46 37 C 46 38.654545 44.654545 40 43 40 L 20 40 A 1.0001 1.0001 0 0 0 19.0625 40.65625 C 17.507274 44.897777 14.731078 46.917893 11.84375 47.65625 C 12.235406 47.095806 12.603914 46.506551 12.8125 45.875 C 13.333329 44.298046 13.288467 42.570944 12.96875 40.8125 A 1.0001 1.0001 0 0 0 12 40 L 7 40 C 5.3454545 40 4 38.654545 4 37 L 4 13 C 4 11.345455 5.3454545 10 7 10 z M 15 22 C 13.35499 22 12 23.35499 12 25 C 12 26.64501 13.35499 28 15 28 C 16.64501 28 18 26.64501 18 25 C 18 23.35499 16.64501 22 15 22 z M 25 22 C 23.35499 22 22 23.35499 22 25 C 22 26.64501 23.35499 28 25 28 C 26.64501 28 28 26.64501 28 25 C 28 23.35499 26.64501 22 25 22 z M 35 22 C 33.35499 22 32 23.35499 32 25 C 32 26.64501 33.35499 28 35 28 C 36.64501 28 38 26.64501 38 25 C 38 23.35499 36.64501 22 35 22 z M 15 24 C 15.564128 24 16 24.435872 16 25 C 16 25.564128 15.564128 26 15 26 C 14.435872 26 14 25.564128 14 25 C 14 24.435872 14.435872 24 15 24 z M 25 24 C 25.564128 24 26 24.435872 26 25 C 26 25.564128 25.564128 26 25 26 C 24.435872 26 24 25.564128 24 25 C 24 24.435872 24.435872 24 25 24 z M 35 24 C 35.564128 24 36 24.435872 36 25 C 36 25.564128 35.564128 26 35 26 C 34.435872 26 34 25.564128 34 25 C 34 24.435872 34.435872 24 35 24 z" overflow="visible" enable-background="accumulate" font-family="Bitstream Vera Sans"></path>
</svg>
