<svg xmlns="http://www.w3.org/2000/svg" viewBox="0 0 64 64">
    <path fill="#212121" d="M 26 6 C 18.28 6 12 12.28 12 20 L 12 22 C 12 25.497 13.370219 29.806984 15.699219 33.333984 L 5.4882812 39.246094 C 2.1032812 41.206094 5.9211895e-16 44.853625 0 48.765625 L 0 57 C 0 58.654 1.346 60 3 60 L 49 60 C 50.654 60 52 58.654 52 57 L 52 54 L 59 54 C 60.654 54 62 52.654 62 51 L 62 47.439453 C 62 43.692453 60.122563 40.241078 56.976562 38.205078 L 47.806641 32.271484 C 48.116641 31.940484 48.413266 31.591563 48.697266 31.226562 C 48.703266 31.219562 48.704937 31.210125 48.710938 31.203125 C 50.755938 28.555125 52 25.167 52 22 L 52 20 C 52 13.383 46.617 8 40 8 C 38.16 8 36.424234 8.4297813 34.865234 9.1757812 C 32.449234 7.1937812 29.362 6 26 6 z M 26 8 C 32.617 8 38 13.383 38 20 L 38 22 C 38 29.053 32.35 38 26 38 C 19.65 38 14 29.053 14 22 L 14 20 C 14 13.383 19.383 8 26 8 z M 40 10 C 45.514 10 50 14.486 50 20 L 50 22 C 50 24.964 48.724734 28.151578 46.677734 30.517578 C 46.605734 30.600578 46.537844 30.689531 46.464844 30.769531 C 46.172844 31.090531 45.866875 31.397641 45.546875 31.681641 L 45.546875 31.683594 C 45.005875 32.163594 44.436516 32.578063 43.853516 32.914062 C 43.374516 33.189062 43.209328 33.801297 43.486328 34.279297 C 43.671328 34.600297 44.007516 34.78125 44.353516 34.78125 C 44.522516 34.78125 44.694563 34.737484 44.851562 34.646484 C 45.339562 34.365484 45.810437 34.026109 46.273438 33.662109 L 55.888672 39.884766 C 58.462672 41.550766 60 44.374453 60 47.439453 L 60 51 C 60 51.552 59.552 52 59 52 L 52 52 L 52 50 C 52.553 50 53 49.553 53 49 L 53 47 C 53 46.447 52.553 46 52 46 C 51.877 46 51.761344 46.029312 51.652344 46.070312 C 50.930344 43.234313 49.101719 40.745094 46.511719 39.246094 L 36.300781 33.333984 C 38.629781 29.806984 40 25.497 40 22 L 40 20 C 40 16.418 38.636016 13.156734 36.416016 10.677734 C 37.530016 10.245734 38.735 10 40 10 z M 16.884766 34.958984 C 19.280766 37.912984 22.423 40 26 40 C 29.577 40 32.719234 37.912984 35.115234 34.958984 L 45.509766 40.976562 C 48.279766 42.580562 50 45.565625 50 48.765625 L 50 57 C 50 57.552 49.552 58 49 58 L 3 58 C 2.448 58 2 57.552 2 57 L 2 48.765625 C 2 45.565625 3.7212344 42.580563 6.4902344 40.976562 L 16.884766 34.958984 z M 23 46 C 22.447 46 22 46.447 22 47 C 22 47.553 22.447 48 23 48 L 29 48 C 29.553 48 30 47.553 30 47 C 30 46.447 29.553 46 29 46 L 23 46 z M 57 46 C 56.447 46 56 46.447 56 47 L 56 49 C 56 49.553 56.447 50 57 50 C 57.553 50 58 49.553 58 49 L 58 47 C 58 46.447 57.553 46 57 46 z M 6 52 C 5.447 52 5 52.447 5 53 L 5 55 C 5 55.553 5.447 56 6 56 C 6.553 56 7 55.553 7 55 L 7 53 C 7 52.447 6.553 52 6 52 z M 11 52 C 10.447 52 10 52.447 10 53 L 10 55 C 10 55.553 10.447 56 11 56 C 11.553 56 12 55.553 12 55 L 12 53 C 12 52.447 11.553 52 11 52 z M 16 52 C 15.447 52 15 52.447 15 53 L 15 55 C 15 55.553 15.447 56 16 56 C 16.553 56 17 55.553 17 55 L 17 53 C 17 52.447 16.553 52 16 52 z M 21 52 C 20.447 52 20 52.447 20 53 L 20 55 C 20 55.553 20.447 56 21 56 C 21.553 56 22 55.553 22 55 L 22 53 C 22 52.447 21.553 52 21 52 z M 26 52 C 25.447 52 25 52.447 25 53 L 25 55 C 25 55.553 25.447 56 26 56 C 26.553 56 27 55.553 27 55 L 27 53 C 27 52.447 26.553 52 26 52 z M 31 52 C 30.447 52 30 52.447 30 53 L 30 55 C 30 55.553 30.447 56 31 56 C 31.553 56 32 55.553 32 55 L 32 53 C 32 52.447 31.553 52 31 52 z M 36 52 C 35.447 52 35 52.447 35 53 L 35 55 C 35 55.553 35.447 56 36 56 C 36.553 56 37 55.553 37 55 L 37 53 C 37 52.447 36.553 52 36 52 z M 41 52 C 40.447 52 40 52.447 40 53 L 40 55 C 40 55.553 40.447 56 41 56 C 41.553 56 42 55.553 42 55 L 42 53 C 42 52.447 41.553 52 41 52 z M 46 52 C 45.447 52 45 52.447 45 53 L 45 55 C 45 55.553 45.447 56 46 56 C 46.553 56 47 55.553 47 55 L 47 53 C 47 52.447 46.553 52 46 52 z"></path>
</svg>
