<svg xmlns="http://www.w3.org/2000/svg" width="50" height="50" viewBox="0 0 50 50">
    <path fill="#212121" style="text-indent:0;text-align:start;line-height:normal;text-transform:none;block-progression:tb;-inkscape-font-specification:Bitstream Vera Sans" d="M 25 1 C 15.691169 1 8.016773 8.0879999 7.09375 17.15625 C 6.1794914 17.453353 5.453353 18.179491 5.15625 19.09375 C 3.7295494 19.379378 2.4921631 20.355685 1.625 21.65625 C 0.58987851 23.208718 0 25.248357 0 27.5 C 0 29.75073 0.58994777 31.7911 1.625 33.34375 C 2.492105 34.644468 3.7294481 35.620659 5.15625 35.90625 C 5.5473346 37.109713 6.6736681 38 8 38 C 9.6450628 38 11 36.645063 11 35 L 11 20 C 11 18.755921 10.214274 17.701683 9.125 17.25 C 10.001825 9.2352304 16.74849 3 25 3 C 33.25151 3 39.998175 9.2352304 40.875 17.25 C 39.785726 17.701683 39 18.755921 39 20 L 39 35 C 39 36.278351 39.83203 37.35295 40.96875 37.78125 C 40.831361 39.692101 40.182617 41.129883 39.15625 42.15625 C 37.995525 43.316975 36.3 44 34 44 L 30.8125 44 C 30.394294 42.844243 29.29206 42 28 42 L 23 42 C 21.354937 42 20 43.354937 20 45 C 20 46.645063 21.354937 48 23 48 L 28 48 C 29.29206 48 30.394294 47.155757 30.8125 46 L 34 46 C 36.7 46 39.004475 45.183025 40.59375 43.59375 C 42.021578 42.165922 42.82004 40.16306 42.96875 37.8125 C 43.852448 37.502575 44.553721 36.798741 44.84375 35.90625 C 46.270702 35.620669 47.507989 34.644507 48.375 33.34375 C 49.40994 31.791053 50 29.75065 50 27.5 C 50 25.248437 49.41001 23.208765 48.375 21.65625 C 47.50793 20.355645 46.270601 19.379369 44.84375 19.09375 C 44.546647 18.179491 43.820509 17.453353 42.90625 17.15625 C 41.983227 8.0879999 34.308831 1 25 1 z M 8 19 C 8.5629372 19 9 19.437063 9 20 L 9 35 C 9 35.562937 8.5629372 36 8 36 C 7.4370628 36 7 35.562937 7 35 L 7 20 C 7 19.437063 7.4370628 19 8 19 z M 42 19 C 42.562937 19 43 19.437063 43 20 L 43 35 C 43 35.562937 42.562937 36 42 36 C 41.437063 36 41 35.562937 41 35 L 41 20 C 41 19.437063 41.437063 19 42 19 z M 5 21.21875 L 5 33.78125 C 4.3774494 33.517068 3.7896454 33.012628 3.28125 32.25 C 2.5065522 31.0879 2 29.39027 2 27.5 C 2 25.608643 2.5066215 23.911782 3.28125 22.75 C 3.7896 21.987581 4.3774375 21.483001 5 21.21875 z M 45 21.21875 C 45.622584 21.483011 46.210491 21.987611 46.71875 22.75 C 47.49324 23.911735 48 25.608563 48 27.5 C 48 29.39035 47.49331 31.087947 46.71875 32.25 C 46.210445 33.012597 45.622572 33.517058 45 33.78125 L 45 21.21875 z M 23 44 L 28 44 C 28.562937 44 29 44.437063 29 45 C 29 45.562937 28.562937 46 28 46 L 23 46 C 22.437063 46 22 45.562937 22 45 C 22 44.437063 22.437063 44 23 44 z" overflow="visible" enable-background="accumulate" font-family="Bitstream Vera Sans"></path>
</svg>
