<svg class="logo-left" width="40px" height="82px" viewBox="0 0 40 82" version="1.1" xmlns="http://www.w3.org/2000/svg" xmlns:xlink="http://www.w3.org/1999/xlink">
<defs></defs>
    <g id="Page-1" stroke="none" stroke-width="1" fill="none" fill-rule="evenodd">
    <g id="Switch-Logo-Red" transform="translate(-50.000000, -26.000000)" fill="#FFF">
        <g id="Logo" transform="translate(50.000000, 26.000000)">
            <g id="Logo-Left">
                <path d="M0.273803711,23.5623184 L0.273803711,57.6495957 C0.273803711,72.9042202 8.74123724,81.1674805 21.8617823,81.1674805 L36.1131592,81.1674805 L38.3703926,81.1674805 C38.9186824,81.1674805 39.3631592,80.7155819 39.3631592,80.1747139 L39.3631592,77.9174805 L39.3631592,3.29443359 L39.3631592,1.03720021 C39.3631592,0.488910349 38.9112606,0.0444335938 38.3703926,0.0444335938 L36.1131592,0.0444335938 L21.8617823,0.0444335938 C9.05128252,0.0444335938 0.273803711,8.89629215 0.273803711,23.5623184 Z M32.8631592,6.54443359 L32.8631592,74.6674805 L21.8617823,74.6674805 C12.2960592,74.6674805 6.77380371,69.2783818 6.77380371,57.6495957 L6.77380371,23.5623184 C6.77380371,12.4739224 12.6534686,6.54443359 21.8617823,6.54443359 L32.8631592,6.54443359 Z" id="Combined-Shape"></path>
                <circle id="Oval-2" cx="20.5" cy="24.5" r="7.5"></circle>
            </g>
        </g>
    </g>
</g>
</svg>
