<svg class="logo-right" width="35px" height="81px" viewBox="0 0 35 81" version="1.1" xmlns="http://www.w3.org/2000/svg" xmlns:xlink="http://www.w3.org/1999/xlink">
<defs></defs>
<g id="Page-1" stroke="none" stroke-width="1" fill="none" fill-rule="evenodd">
    <g id="Switch-Logo-Red" transform="translate(-97.000000, -26.000000)" fill="#FFF">
        <g id="Logo" transform="translate(50.000000, 26.000000)">
            <g id="Logo-Right" transform="translate(47.000000, 0.000000)">
                <path d="M15.1381114,1.0658141e-14 C25.694267,1.0658141e-14 34.2482868,9.84968532 34.2482868,21.9998879 L34.2482868,59.0001121 C34.2482868,71.1487896 25.6923698,81 15.1381114,81 L1.28413033,81 C0.733221189,81 0.286621094,80.5444691 0.286621094,80.0050837 L0.286621094,0.994916299 C0.286621094,0.4454392 0.731096699,3.18976991e-16 1.28413033,7.15860419e-16 L15.1381114,1.0658141e-14 Z M16.4536133,53.0351562 C21.001333,53.0351562 24.6879883,49.348501 24.6879883,44.8007812 C24.6879883,40.2530615 21.001333,36.5664062 16.4536133,36.5664062 C11.9058935,36.5664062 8.21923828,40.2530615 8.21923828,44.8007812 C8.21923828,49.348501 11.9058935,53.0351562 16.4536133,53.0351562 Z" id="Combined-Shape"></path>
            </g>
        </g>
    </g>
</g>
</svg>
