<?xml version="1.0" encoding="UTF-8" ?>
<!DOCTYPE svg PUBLIC "-//W3C//DTD SVG 1.1//EN" "http://www.w3.org/Graphics/SVG/1.1/DTD/svg11.dtd">
<svg width="500pt" height="500pt" viewBox="0 0 500 500" version="1.1" xmlns="http://www.w3.org/2000/svg">
<g id="#003399ff">
<path fill="#003399" opacity="1.00" d=" M 242.53 0.00 L 257.41 0.00 C 294.50 1.22 331.41 10.45 364.34 27.65 C 418.80 55.48 462.19 104.08 483.80 161.28 C 493.76 187.28 498.95 214.96 500.00 242.74 L 500.00 257.14 C 498.76 293.59 489.90 329.83 473.37 362.38 C 454.95 398.82 427.56 430.71 394.17 454.22 C 354.43 482.57 306.19 498.52 257.44 500.00 L 241.86 500.00 C 197.66 498.44 153.87 485.25 116.56 461.42 C 85.21 441.64 58.36 414.78 38.59 383.43 C 14.47 345.65 1.23 301.22 0.00 256.46 L 0.00 243.52 C 0.95 212.81 7.24 182.22 19.14 153.86 C 40.19 103.28 78.33 60.02 125.95 32.92 C 161.28 12.46 201.76 1.30 242.53 0.00 M 249.78 21.82 C 247.55 29.38 244.96 36.83 242.59 44.34 C 234.55 44.42 226.52 44.50 218.48 44.25 C 224.90 49.11 231.48 53.74 237.98 58.48 C 235.51 66.15 233.01 73.81 230.50 81.46 C 236.96 76.68 243.48 71.96 250.00 67.25 C 256.52 71.96 263.04 76.68 269.51 81.46 C 266.99 73.81 264.49 66.15 262.02 58.48 C 268.52 53.74 275.10 49.11 281.52 44.26 C 273.52 44.54 265.51 44.34 257.51 44.41 C 254.70 36.98 252.96 29.04 249.78 21.82 M 150.65 47.97 C 148.40 55.71 145.73 63.32 143.29 71.00 C 135.26 71.00 127.22 70.99 119.19 71.01 C 125.76 75.61 132.20 80.39 138.69 85.10 C 136.23 92.79 133.76 100.48 131.16 108.12 C 137.67 103.31 144.19 98.54 150.79 93.86 C 157.25 98.61 163.77 103.28 170.23 108.05 C 167.74 100.40 165.20 92.77 162.78 85.10 C 169.28 80.40 175.70 75.57 182.31 71.02 C 174.26 70.98 166.22 71.02 158.17 70.99 C 155.64 63.33 153.25 55.61 150.65 47.97 M 349.35 47.96 C 346.76 55.61 344.35 63.32 341.83 70.99 C 333.78 71.02 325.74 70.98 317.69 71.02 C 324.30 75.57 330.71 80.40 337.22 85.10 C 334.80 92.77 332.26 100.40 329.77 108.05 C 336.24 103.28 342.75 98.57 349.25 93.85 C 355.80 98.58 362.35 103.30 368.84 108.13 C 366.23 100.48 363.77 92.79 361.31 85.10 C 367.80 80.39 374.24 75.61 380.81 71.01 C 372.77 70.99 364.74 71.00 356.71 71.00 C 354.26 63.32 351.60 55.70 349.35 47.96 M 70.62 143.65 C 62.57 143.66 54.53 143.73 46.48 143.59 C 53.01 148.32 59.54 153.04 66.04 157.79 C 63.55 165.44 61.09 173.11 58.55 180.74 C 65.02 175.98 71.52 171.25 78.05 166.56 C 84.61 171.23 91.12 175.98 97.60 180.77 C 95.07 173.08 92.47 165.42 90.14 157.68 C 96.69 153.06 103.12 148.27 109.64 143.60 C 101.60 143.72 93.55 143.66 85.51 143.65 C 83.01 136.00 80.47 128.36 78.12 120.67 C 75.55 128.31 73.19 136.01 70.62 143.65 M 421.88 120.67 C 419.52 128.37 416.99 136.01 414.48 143.65 C 406.44 143.66 398.40 143.72 390.36 143.60 C 396.87 148.25 403.26 153.07 409.84 157.63 C 407.59 165.41 404.90 173.06 402.40 180.77 C 408.88 175.98 415.39 171.23 421.95 166.56 C 428.47 171.25 434.97 175.98 441.45 180.74 C 438.90 173.11 436.45 165.45 433.95 157.80 C 440.45 153.03 446.99 148.32 453.52 143.59 C 445.47 143.73 437.43 143.66 429.38 143.65 C 426.81 136.01 424.45 128.31 421.88 120.67 M 51.46 219.93 C 49.06 227.62 46.52 235.27 44.03 242.93 C 35.98 242.95 27.94 242.91 19.89 242.95 C 26.47 247.56 32.92 252.33 39.41 257.06 C 36.97 264.74 34.53 272.42 31.89 280.03 C 38.42 275.30 44.92 270.55 51.43 265.81 C 58.02 270.50 64.50 275.31 71.06 280.04 C 68.39 272.43 65.98 264.74 63.52 257.06 C 70.01 252.33 76.47 247.56 83.04 242.95 C 74.99 242.91 66.95 242.95 58.91 242.93 C 56.41 235.27 53.89 227.61 51.46 219.93 M 448.52 219.93 C 446.13 227.62 443.58 235.27 441.09 242.93 C 433.03 242.94 424.97 242.93 416.91 242.93 C 423.51 247.53 429.97 252.33 436.48 257.06 C 434.02 264.74 431.60 272.43 428.94 280.04 C 435.46 275.30 441.98 270.56 448.49 265.81 C 455.08 270.49 461.55 275.31 468.11 280.02 C 465.47 272.41 463.03 264.74 460.59 257.06 C 467.10 252.33 473.55 247.51 480.18 242.93 C 472.11 242.94 464.04 242.93 455.97 242.93 C 453.46 235.27 450.96 227.60 448.52 219.93 M 70.70 342.13 C 62.64 342.28 54.57 342.21 46.51 342.12 C 52.98 346.92 59.55 351.59 66.04 356.35 C 63.57 364.01 61.07 371.66 58.57 379.31 C 65.04 374.53 71.55 369.81 78.07 365.09 C 84.59 369.81 91.10 374.54 97.58 379.31 C 95.05 371.67 92.57 364.00 90.09 356.35 C 96.60 351.59 103.15 346.90 109.64 342.12 C 101.62 342.27 93.61 342.14 85.59 342.23 C 82.94 334.63 80.52 326.94 78.12 319.25 C 75.58 326.85 73.14 334.49 70.70 342.13 M 421.87 319.27 C 419.55 326.94 416.96 334.52 414.53 342.16 C 406.47 342.24 398.41 342.23 390.36 342.12 C 396.85 346.90 403.40 351.59 409.91 356.35 C 407.42 364.01 404.95 371.67 402.41 379.32 C 408.90 374.55 415.41 369.81 421.94 365.09 C 428.45 369.82 434.97 374.53 441.43 379.31 C 438.93 371.66 436.43 364.01 433.95 356.35 C 440.45 351.59 447.02 346.92 453.49 342.12 C 445.43 342.22 437.38 342.24 429.33 342.16 C 426.83 334.53 424.45 326.87 421.87 319.27 M 150.64 391.89 C 148.40 399.61 145.76 407.21 143.29 414.87 C 135.23 414.87 127.17 414.86 119.10 414.88 C 125.70 419.49 132.18 424.29 138.69 429.03 C 136.22 436.71 133.78 444.40 131.16 452.04 C 137.66 447.24 144.19 442.50 150.75 437.79 C 157.26 442.49 163.75 447.22 170.23 451.98 C 167.74 444.32 165.20 436.69 162.78 429.02 C 169.31 424.30 175.77 419.46 182.40 414.87 C 174.32 414.85 166.24 414.88 158.16 414.86 C 155.61 407.22 153.25 399.51 150.64 391.89 M 341.83 414.86 C 333.75 414.88 325.68 414.85 317.60 414.87 C 324.23 419.46 330.69 424.30 337.22 429.03 C 334.79 436.69 332.26 444.33 329.77 451.98 C 336.24 447.22 342.74 442.49 349.25 437.79 C 355.80 442.49 362.34 447.24 368.83 452.04 C 366.22 444.40 363.78 436.71 361.31 429.04 C 367.82 424.29 374.30 419.50 380.90 414.88 C 372.83 414.86 364.77 414.87 356.71 414.87 C 354.23 407.22 351.60 399.61 349.36 391.89 C 346.74 399.51 344.39 407.22 341.83 414.86 M 249.83 418.85 C 247.60 426.42 244.94 433.85 242.67 441.41 C 234.61 441.65 226.53 441.57 218.47 441.41 C 224.91 446.20 231.44 450.88 237.96 455.58 C 235.54 463.28 233.00 470.94 230.48 478.60 C 236.95 473.82 243.46 469.09 250.00 464.40 C 256.53 469.09 263.05 473.82 269.52 478.60 C 266.99 470.94 264.47 463.28 262.03 455.59 C 268.55 450.88 275.09 446.20 281.54 441.41 C 273.54 441.67 265.54 441.45 257.54 441.56 C 254.72 434.08 252.87 426.20 249.83 418.85 Z" />
</g>
<g id="#ffcc00ff">
<path fill="#ffcc00" opacity="1.00" d=" M 249.78 21.82 C 252.96 29.04 254.70 36.98 257.51 44.41 C 265.51 44.34 273.52 44.54 281.52 44.26 C 275.10 49.11 268.52 53.74 262.02 58.48 C 264.49 66.15 266.99 73.81 269.51 81.46 C 263.04 76.68 256.52 71.96 250.00 67.25 C 243.48 71.96 236.96 76.68 230.50 81.46 C 233.01 73.81 235.51 66.15 237.98 58.48 C 231.48 53.74 224.90 49.11 218.48 44.25 C 226.52 44.50 234.55 44.42 242.59 44.34 C 244.96 36.83 247.55 29.38 249.78 21.82 Z" />
<path fill="#ffcc00" opacity="1.00" d=" M 150.65 47.97 C 153.25 55.61 155.64 63.33 158.17 70.99 C 166.22 71.02 174.26 70.98 182.31 71.02 C 175.70 75.57 169.28 80.40 162.78 85.10 C 165.20 92.77 167.74 100.40 170.23 108.05 C 163.77 103.28 157.25 98.61 150.79 93.86 C 144.19 98.54 137.67 103.31 131.16 108.12 C 133.76 100.48 136.23 92.79 138.69 85.10 C 132.20 80.39 125.76 75.61 119.19 71.01 C 127.22 70.99 135.26 71.00 143.29 71.00 C 145.73 63.32 148.40 55.71 150.65 47.97 Z" />
<path fill="#ffcc00" opacity="1.00" d=" M 349.35 47.96 C 351.60 55.70 354.26 63.32 356.71 71.00 C 364.74 71.00 372.77 70.99 380.81 71.01 C 374.24 75.61 367.80 80.39 361.31 85.10 C 363.77 92.79 366.23 100.48 368.84 108.13 C 362.35 103.30 355.80 98.58 349.25 93.85 C 342.75 98.57 336.24 103.28 329.77 108.05 C 332.26 100.40 334.80 92.77 337.22 85.10 C 330.71 80.40 324.30 75.57 317.69 71.02 C 325.74 70.98 333.78 71.02 341.83 70.99 C 344.35 63.32 346.76 55.61 349.35 47.96 Z" />
<path fill="#ffcc00" opacity="1.00" d=" M 70.62 143.65 C 73.19 136.01 75.55 128.31 78.12 120.67 C 80.47 128.36 83.01 136.00 85.51 143.65 C 93.55 143.66 101.60 143.72 109.64 143.60 C 103.12 148.27 96.69 153.06 90.14 157.68 C 92.47 165.42 95.07 173.08 97.60 180.77 C 91.12 175.98 84.61 171.23 78.05 166.56 C 71.52 171.25 65.02 175.98 58.55 180.74 C 61.09 173.11 63.55 165.44 66.04 157.79 C 59.54 153.04 53.01 148.32 46.48 143.59 C 54.53 143.73 62.57 143.66 70.62 143.65 Z" />
<path fill="#ffcc00" opacity="1.00" d=" M 421.88 120.67 C 424.45 128.31 426.81 136.01 429.38 143.65 C 437.43 143.66 445.47 143.73 453.52 143.59 C 446.99 148.32 440.45 153.03 433.95 157.80 C 436.45 165.45 438.90 173.11 441.45 180.74 C 434.97 175.98 428.47 171.25 421.95 166.56 C 415.39 171.23 408.88 175.98 402.40 180.77 C 404.90 173.06 407.59 165.41 409.84 157.63 C 403.26 153.07 396.87 148.25 390.36 143.60 C 398.40 143.72 406.44 143.66 414.48 143.65 C 416.99 136.01 419.52 128.37 421.88 120.67 Z" />
<path fill="#ffcc00" opacity="1.00" d=" M 51.46 219.93 C 53.89 227.61 56.41 235.27 58.91 242.93 C 66.95 242.95 74.99 242.91 83.04 242.95 C 76.47 247.56 70.01 252.33 63.52 257.06 C 65.98 264.74 68.39 272.43 71.06 280.04 C 64.50 275.31 58.02 270.50 51.43 265.81 C 44.92 270.55 38.42 275.30 31.89 280.03 C 34.53 272.42 36.97 264.74 39.41 257.06 C 32.92 252.33 26.47 247.56 19.89 242.95 C 27.94 242.91 35.98 242.95 44.03 242.93 C 46.52 235.27 49.06 227.62 51.46 219.93 Z" />
<path fill="#ffcc00" opacity="1.00" d=" M 448.52 219.93 C 450.96 227.60 453.46 235.27 455.97 242.93 C 464.04 242.93 472.11 242.94 480.18 242.93 C 473.55 247.51 467.10 252.33 460.59 257.06 C 463.03 264.74 465.47 272.41 468.11 280.02 C 461.55 275.31 455.08 270.49 448.49 265.81 C 441.98 270.56 435.46 275.30 428.94 280.04 C 431.60 272.43 434.02 264.74 436.48 257.06 C 429.97 252.33 423.51 247.53 416.91 242.93 C 424.97 242.93 433.03 242.94 441.09 242.93 C 443.58 235.27 446.13 227.62 448.52 219.93 Z" />
<path fill="#ffcc00" opacity="1.00" d=" M 70.70 342.13 C 73.14 334.49 75.58 326.85 78.12 319.25 C 80.52 326.94 82.94 334.63 85.59 342.23 C 93.61 342.14 101.62 342.27 109.64 342.12 C 103.15 346.90 96.60 351.59 90.09 356.35 C 92.57 364.00 95.05 371.67 97.58 379.31 C 91.10 374.54 84.59 369.81 78.07 365.09 C 71.55 369.81 65.04 374.53 58.57 379.31 C 61.07 371.66 63.57 364.01 66.04 356.35 C 59.55 351.59 52.98 346.92 46.51 342.12 C 54.57 342.21 62.64 342.28 70.70 342.13 Z" />
<path fill="#ffcc00" opacity="1.00" d=" M 421.87 319.27 C 424.45 326.87 426.83 334.53 429.33 342.16 C 437.38 342.24 445.43 342.22 453.49 342.12 C 447.02 346.92 440.45 351.59 433.95 356.35 C 436.43 364.01 438.93 371.66 441.43 379.31 C 434.97 374.53 428.45 369.82 421.94 365.09 C 415.41 369.81 408.90 374.55 402.41 379.32 C 404.95 371.67 407.42 364.01 409.91 356.35 C 403.40 351.59 396.85 346.90 390.36 342.12 C 398.41 342.23 406.47 342.24 414.53 342.16 C 416.96 334.52 419.55 326.94 421.87 319.27 Z" />
<path fill="#ffcc00" opacity="1.00" d=" M 150.64 391.89 C 153.25 399.51 155.61 407.22 158.16 414.86 C 166.24 414.88 174.32 414.85 182.40 414.87 C 175.77 419.46 169.31 424.30 162.78 429.02 C 165.20 436.69 167.74 444.32 170.23 451.98 C 163.75 447.22 157.26 442.49 150.75 437.79 C 144.19 442.50 137.66 447.24 131.16 452.04 C 133.78 444.40 136.22 436.71 138.69 429.03 C 132.18 424.29 125.70 419.49 119.10 414.88 C 127.17 414.86 135.23 414.87 143.29 414.87 C 145.76 407.21 148.40 399.61 150.64 391.89 Z" />
<path fill="#ffcc00" opacity="1.00" d=" M 341.83 414.86 C 344.39 407.22 346.74 399.51 349.36 391.89 C 351.60 399.61 354.23 407.22 356.71 414.87 C 364.77 414.87 372.83 414.86 380.90 414.88 C 374.30 419.50 367.82 424.29 361.31 429.04 C 363.78 436.71 366.22 444.40 368.83 452.04 C 362.34 447.24 355.80 442.49 349.25 437.79 C 342.74 442.49 336.24 447.22 329.77 451.98 C 332.26 444.33 334.79 436.69 337.22 429.03 C 330.69 424.30 324.23 419.46 317.60 414.87 C 325.68 414.85 333.75 414.88 341.83 414.86 Z" />
<path fill="#ffcc00" opacity="1.00" d=" M 249.83 418.85 C 252.87 426.20 254.72 434.08 257.54 441.56 C 265.54 441.45 273.54 441.67 281.54 441.41 C 275.09 446.20 268.55 450.88 262.03 455.59 C 264.47 463.28 266.99 470.94 269.52 478.60 C 263.05 473.82 256.53 469.09 250.00 464.40 C 243.46 469.09 236.95 473.82 230.48 478.60 C 233.00 470.94 235.54 463.28 237.96 455.58 C 231.44 450.88 224.91 446.20 218.47 441.41 C 226.53 441.57 234.61 441.65 242.67 441.41 C 244.94 433.85 247.60 426.42 249.83 418.85 Z" />
</g>
</svg>
