<?xml version="1.0" encoding="UTF-8" standalone="no"?>
<svg
   xmlns:dc="http://purl.org/dc/elements/1.1/"
   xmlns:cc="http://creativecommons.org/ns#"
   xmlns:rdf="http://www.w3.org/1999/02/22-rdf-syntax-ns#"
   xmlns:svg="http://www.w3.org/2000/svg"
   xmlns="http://www.w3.org/2000/svg"
   viewBox="0 0 400 400"
   height="400"
   width="400"
   xml:space="preserve"
   id="svg2"
   version="1.1"><metadata
     id="metadata8"><rdf:RDF><cc:Work
         rdf:about=""><dc:format>image/svg+xml</dc:format><dc:type
           rdf:resource="http://purl.org/dc/dcmitype/StillImage" /></cc:Work></rdf:RDF></metadata><defs
     id="defs6"><clipPath
       id="clipPath20"
       clipPathUnits="userSpaceOnUse"><path
         id="path18"
         d="M 3000,1500 C 3000,671.57 2328.43,0 1500,0 671.574,0 0,671.57 0,1500 c 0,828.43 671.574,1500 1500,1500 828.43,0 1500,-671.57 1500,-1500 z" /></clipPath></defs><g
     transform="matrix(1.3333333,0,0,-1.3333333,0,400)"
     id="g10"><g
       transform="scale(0.1)"
       id="g12"><g
         id="g14"><g
           clip-path="url(#clipPath20)"
           id="g16"><path
             id="path22"
             style="fill:#eb1e26;fill-opacity:1;fill-rule:nonzero;stroke:none"
             d="M 0,0 H 4500 V 3000 H 0 Z" /><path
             id="path24"
             style="fill:#2d3284;fill-opacity:1;fill-rule:nonzero;stroke:none"
             d="M 0,1500 H 2250 V 3000 H 0 Z" /><path
             id="path26"
             style="fill:#ffffff;fill-opacity:1;fill-rule:nonzero;stroke:none"
             d="m 1124.64,1969.79 c 154.83,0 280.34,125.52 280.34,280.35 0,154.82 -125.51,280.34 -280.34,280.34 -154.831,0 -280.347,-125.52 -280.347,-280.34 0,-154.83 125.516,-280.35 280.347,-280.35" /><path
             id="path28"
             style="fill:#ffffff;fill-opacity:1;fill-rule:nonzero;stroke:none"
             d="m 1190.42,2565.89 -65.78,245.51 -65.95,-246.11 c 34.7,8.4 87.44,10.35 131.73,0.6" /><path
             id="path30"
             style="fill:#ffffff;fill-opacity:1;fill-rule:nonzero;stroke:none"
             d="m 1023.74,2556.48 -179.728,179.73 65.945,-246.12 c 25.848,24.63 70.543,52.68 113.783,66.39" /><path
             id="path32"
             style="fill:#ffffff;fill-opacity:1;fill-rule:nonzero;stroke:none"
             d="m 884.09,2464.99 -245.516,65.78 180.168,-180.17 c 10.071,34.25 34.746,80.9 65.348,114.39" /><path
             id="path34"
             style="fill:#ffffff;fill-opacity:1;fill-rule:nonzero;stroke:none"
             d="m 808.887,2315.93 -245.516,-65.79 246.125,-65.95 c -8.414,34.69 -10.363,87.44 -0.609,131.74" /><path
             id="path36"
             style="fill:#ffffff;fill-opacity:1;fill-rule:nonzero;stroke:none"
             d="m 818.297,2149.23 -179.734,-179.73 246.125,65.95 c -24.637,25.85 -52.692,70.55 -66.391,113.78" /><path
             id="path38"
             style="fill:#ffffff;fill-opacity:1;fill-rule:nonzero;stroke:none"
             d="M 909.793,2009.58 844,1764.06 l 180.18,180.18 c -34.258,10.07 -80.899,34.74 -114.387,65.34" /><path
             id="path40"
             style="fill:#ffffff;fill-opacity:1;fill-rule:nonzero;stroke:none"
             d="m 1058.86,1934.38 65.78,-245.51 65.94,246.12 c -34.69,-8.41 -87.43,-10.37 -131.72,-0.61" /><path
             id="path42"
             style="fill:#ffffff;fill-opacity:1;fill-rule:nonzero;stroke:none"
             d="m 1225.55,1943.79 179.73,-179.73 -65.95,246.12 c -25.85,-24.62 -70.54,-52.69 -113.78,-66.39" /><path
             id="path44"
             style="fill:#ffffff;fill-opacity:1;fill-rule:nonzero;stroke:none"
             d="m 1365.2,2035.29 245.51,-65.8 -180.16,180.18 c -10.07,-34.25 -34.75,-80.9 -65.35,-114.38" /><path
             id="path46"
             style="fill:#ffffff;fill-opacity:1;fill-rule:nonzero;stroke:none"
             d="m 1440.4,2184.35 245.52,65.78 -246.13,65.96 c 8.41,-34.71 10.37,-87.44 0.61,-131.74" /><path
             id="path48"
             style="fill:#ffffff;fill-opacity:1;fill-rule:nonzero;stroke:none"
             d="m 1430.99,2351.04 179.73,179.73 -246.12,-65.95 c 24.63,-25.84 52.69,-70.54 66.39,-113.78" /><path
             id="path50"
             style="fill:#ffffff;fill-opacity:1;fill-rule:nonzero;stroke:none"
             d="m 1339.49,2490.69 65.8,245.53 -180.18,-180.18 c 34.25,-10.06 80.9,-34.74 114.38,-65.35" /></g></g></g></g></svg>