<?xml version="1.0" encoding="UTF-8" standalone="no"?>
<svg
   xmlns:dc="http://purl.org/dc/elements/1.1/"
   xmlns:cc="http://creativecommons.org/ns#"
   xmlns:rdf="http://www.w3.org/1999/02/22-rdf-syntax-ns#"
   xmlns:svg="http://www.w3.org/2000/svg"
   xmlns="http://www.w3.org/2000/svg"
   viewBox="0 0 400 400"
   height="400"
   width="400"
   xml:space="preserve"
   id="svg2"
   version="1.1"><metadata
     id="metadata8"><rdf:RDF><cc:Work
         rdf:about=""><dc:format>image/svg+xml</dc:format><dc:type
           rdf:resource="http://purl.org/dc/dcmitype/StillImage" /></cc:Work></rdf:RDF></metadata><defs
     id="defs6"><clipPath
       id="clipPath20"
       clipPathUnits="userSpaceOnUse"><path
         id="path18"
         d="M 3000,1500 C 3000,671.57 2328.43,0 1500,0 671.574,0 0,671.57 0,1500 c 0,828.43 671.574,1500 1500,1500 828.43,0 1500,-671.57 1500,-1500 z" /></clipPath></defs><g
     transform="matrix(1.3333333,0,0,-1.3333333,0,400)"
     id="g10"><g
       transform="scale(0.1)"
       id="g12"><g
         id="g14"><g
           clip-path="url(#clipPath20)"
           id="g16"><path
             id="path22"
             style="fill:#df2524;fill-opacity:1;fill-rule:nonzero;stroke:none"
             d="M 0,0 H 4500 V 3000 H 0 Z" /><path
             id="path24"
             style="fill:#f9de05;fill-opacity:1;fill-rule:nonzero;stroke:none"
             d="m 750,2700 264.5,-814.06 -692.477,503.12 H 1177.97 L 485.496,1885.94 750,2700" /><path
             id="path26"
             style="fill:#f9de05;fill-opacity:1;fill-rule:nonzero;stroke:none"
             d="m 1371.37,2622.82 187.33,215.22 -25.05,-284.22 -146.79,244.66 262.56,-111.65 -278.05,-64.01" /><path
             id="path28"
             style="fill:#f9de05;fill-opacity:1;fill-rule:nonzero;stroke:none"
             d="m 1651.51,2378.79 256.15,125.65 -133.37,-252.22 -40.35,282.45 198.66,-204.79 -281.09,48.91" /><path
             id="path30"
             style="fill:#f9de05;fill-opacity:1;fill-rule:nonzero;stroke:none"
             d="m 1655.77,1991.21 285.13,10.23 -224.66,-175.88 78.38,274.34 97.84,-268.01 -236.69,159.32" /><path
             id="path32"
             style="fill:#f9de05;fill-opacity:1;fill-rule:nonzero;stroke:none"
             d="m 1382.87,1743.7 266.97,-100.66 -275.15,-75.48 178.23,222.79 -13.24,-285.01 -156.81,238.36" /></g></g></g></g></svg>