<?xml version="1.0" encoding="UTF-8" standalone="no"?>
<svg
   xmlns:dc="http://purl.org/dc/elements/1.1/"
   xmlns:cc="http://creativecommons.org/ns#"
   xmlns:rdf="http://www.w3.org/1999/02/22-rdf-syntax-ns#"
   xmlns:svg="http://www.w3.org/2000/svg"
   xmlns="http://www.w3.org/2000/svg"
   viewBox="0 0 400 400"
   height="400"
   width="400"
   xml:space="preserve"
   id="svg2"
   version="1.1"><metadata
     id="metadata8"><rdf:RDF><cc:Work
         rdf:about=""><dc:format>image/svg+xml</dc:format><dc:type
           rdf:resource="http://purl.org/dc/dcmitype/StillImage" /></cc:Work></rdf:RDF></metadata><defs
     id="defs6"><clipPath
       id="clipPath20"
       clipPathUnits="userSpaceOnUse"><path
         id="path18"
         d="M 3000,1500 C 3000,671.57 2328.43,0 1500,0 671.574,0 0,671.57 0,1500 c 0,828.43 671.574,1500 1500,1500 828.43,0 1500,-671.57 1500,-1500 z" /></clipPath></defs><g
     transform="matrix(1.3333333,0,0,-1.3333333,0,400)"
     id="g10"><g
       transform="scale(0.1)"
       id="g12"><g
         id="g14"><g
           clip-path="url(#clipPath20)"
           id="g16"><path
             id="path22"
             style="fill:#ffffff;fill-opacity:1;fill-rule:nonzero;stroke:none"
             d="M 0,0 H 3000 V 3000 H 0 Z" /><path
             id="path24"
             style="fill:#100f0d;fill-opacity:1;fill-rule:nonzero;stroke:none"
             d="m 459.934,1892.91 277.351,416.03 277.355,-184.9 -277.355,-416.03 -277.351,184.9" /><path
             id="path26"
             style="fill:#ffffff;fill-opacity:1;fill-rule:nonzero;stroke:none"
             d="m 506.16,1812.02 323.574,485.36 34.668,-23.11 -323.574,-485.36 -34.668,23.11" /><path
             id="path28"
             style="fill:#ffffff;fill-opacity:1;fill-rule:nonzero;stroke:none"
             d="m 610.168,1742.68 323.574,485.36 34.668,-23.11 -323.574,-485.36 -34.668,23.11" /><path
             id="path30"
             style="fill:#100f0d;fill-opacity:1;fill-rule:nonzero;stroke:none"
             d="m 1985.36,875.961 277.35,416.029 277.35,-184.9 -277.35,-416.031 -277.35,184.902" /><path
             id="path32"
             style="fill:#ffffff;fill-opacity:1;fill-rule:nonzero;stroke:none"
             d="m 2031.59,795.07 323.57,485.36 34.67,-23.11 -323.57,-485.371 -34.67,23.121" /><path
             id="path34"
             style="fill:#ffffff;fill-opacity:1;fill-rule:nonzero;stroke:none"
             d="m 2135.59,725.73 323.58,485.36 34.66,-23.11 -323.57,-485.359 -34.67,23.109" /><path
             id="path36"
             style="fill:#ffffff;fill-opacity:1;fill-rule:nonzero;stroke:none"
             d="m 2077.81,1089.75 23.11,34.67 346.69,-231.131 -23.11,-34.66 -346.69,231.121" /><path
             id="path38"
             style="fill:#c71b31;fill-opacity:1;fill-rule:nonzero;stroke:none"
             d="m 1083.97,1777.35 c 153.18,229.76 463.61,291.85 693.38,138.68 229.76,-153.18 291.85,-463.62 138.67,-693.38 -153.17,-229.771 -463.61,-291.849 -693.37,-138.68 -229.767,153.18 -291.853,463.61 -138.68,693.38" /><path
             id="path40"
             style="fill:#263975;fill-opacity:1;fill-rule:nonzero;stroke:none"
             d="m 1083.97,1777.35 c -76.58,-114.88 -45.54,-270.1 69.34,-346.69 114.88,-76.59 270.1,-45.54 346.69,69.34 76.59,114.88 231.8,145.92 346.69,69.34 114.88,-76.59 145.92,-231.81 69.33,-346.69 -153.17,-229.771 -463.61,-291.849 -693.37,-138.68 -229.767,153.18 -291.853,463.61 -138.68,693.38" /><path
             id="path42"
             style="fill:#100f0d;fill-opacity:1;fill-rule:nonzero;stroke:none"
             d="M 737.285,691.059 459.934,1107.09 737.285,1291.99 1014.64,875.961 737.285,691.059" /><path
             id="path44"
             style="fill:#ffffff;fill-opacity:1;fill-rule:nonzero;stroke:none"
             d="M 829.734,702.621 506.16,1187.98 540.828,1211.09 864.402,725.73 829.734,702.621" /><path
             id="path46"
             style="fill:#ffffff;fill-opacity:1;fill-rule:nonzero;stroke:none"
             d="M 933.742,771.949 610.168,1257.32 644.836,1280.43 968.41,795.07 933.742,771.949" /><path
             id="path48"
             style="fill:#100f0d;fill-opacity:1;fill-rule:nonzero;stroke:none"
             d="m 2262.71,1708.01 -277.35,416.03 277.35,184.9 277.35,-416.03 -277.35,-184.9" /><path
             id="path50"
             style="fill:#ffffff;fill-opacity:1;fill-rule:nonzero;stroke:none"
             d="m 2355.16,1719.57 -323.57,485.36 34.66,23.11 323.58,-485.36 -34.67,-23.11" /><path
             id="path52"
             style="fill:#ffffff;fill-opacity:1;fill-rule:nonzero;stroke:none"
             d="m 2459.17,1788.91 -323.58,485.36 34.67,23.11 323.57,-485.36 -34.66,-23.11" /><path
             id="path54"
             style="fill:#ffffff;fill-opacity:1;fill-rule:nonzero;stroke:none"
             d="m 2100.92,1875.58 -23.11,34.67 346.69,231.12 23.11,-34.67 -346.69,-231.12" /><path
             id="path56"
             style="fill:#100f0d;fill-opacity:1;fill-rule:nonzero;stroke:none"
             d="m 2251.16,1950.69 -46.23,69.34 69.34,46.23 46.22,-69.34 -69.33,-46.23" /><path
             id="path58"
             style="fill:#ffffff;fill-opacity:1;fill-rule:nonzero;stroke:none"
             d="m 679.504,927.961 -23.109,34.668 138.671,92.451 23.114,-34.67 -138.676,-92.449" /></g></g></g></g></svg>