<?xml version="1.0" encoding="UTF-8" standalone="no"?>
<svg
   xmlns:dc="http://purl.org/dc/elements/1.1/"
   xmlns:cc="http://creativecommons.org/ns#"
   xmlns:rdf="http://www.w3.org/1999/02/22-rdf-syntax-ns#"
   xmlns:svg="http://www.w3.org/2000/svg"
   xmlns="http://www.w3.org/2000/svg"
   viewBox="0 0 400 400"
   height="400"
   width="400"
   xml:space="preserve"
   id="svg2"
   version="1.1"><metadata
     id="metadata8"><rdf:RDF><cc:Work
         rdf:about=""><dc:format>image/svg+xml</dc:format><dc:type
           rdf:resource="http://purl.org/dc/dcmitype/StillImage" /></cc:Work></rdf:RDF></metadata><defs
     id="defs6"><clipPath
       id="clipPath20"
       clipPathUnits="userSpaceOnUse"><path
         id="path18"
         d="M 3000,1500 C 3000,671.57 2328.43,0 1500,0 671.574,0 0,671.57 0,1500 c 0,828.43 671.574,1500 1500,1500 828.43,0 1500,-671.57 1500,-1500 z" /></clipPath></defs><g
     transform="matrix(1.3333333,0,0,-1.3333333,0,400)"
     id="g10"><g
       transform="scale(0.1)"
       id="g12"><g
         id="g14"><g
           clip-path="url(#clipPath20)"
           id="g16"><path
             id="path22"
             style="fill:#ffffff;fill-opacity:1;fill-rule:nonzero;stroke:none"
             d="M 0,0 H 5700 V 3000 H 0 Z" /><path
             id="path24"
             style="fill:#b21c33;fill-opacity:1;fill-rule:nonzero;stroke:none"
             d="M 0,2769.23 H 5700 V 3000 H 0 Z" /><path
             id="path26"
             style="fill:#b21c33;fill-opacity:1;fill-rule:nonzero;stroke:none"
             d="m 0,2307.69 h 5700 v 230.773 H 0 Z" /><path
             id="path28"
             style="fill:#b21c33;fill-opacity:1;fill-rule:nonzero;stroke:none"
             d="m 0,1846.15 h 5700 v 230.773 H 0 Z" /><path
             id="path30"
             style="fill:#b21c33;fill-opacity:1;fill-rule:nonzero;stroke:none"
             d="m 0,1384.62 h 5700 v 230.758 H 0 Z" /><path
             id="path32"
             style="fill:#b21c33;fill-opacity:1;fill-rule:nonzero;stroke:none"
             d="m 0,923.082 h 5700 v 230.77 H 0 Z" /><path
             id="path34"
             style="fill:#b21c33;fill-opacity:1;fill-rule:nonzero;stroke:none"
             d="m 0,461.539 h 5700 v 230.77 H 0 Z" /><path
             id="path36"
             style="fill:#b21c33;fill-opacity:1;fill-rule:nonzero;stroke:none"
             d="M 0,0 H 5700 V 230.77 H 0 Z" /><path
             id="path38"
             style="fill:#37366d;fill-opacity:1;fill-rule:nonzero;stroke:none"
             d="M 0,1384.62 H 2280 V 3000 H 0 Z" /><path
             id="path40"
             style="fill:#ffffff;fill-opacity:1;fill-rule:nonzero;stroke:none"
             d="m 107.121,2868.86 54.309,-39.46 -20.746,-63.85 54.312,39.46 54.313,-39.46 -20.746,63.85 54.312,39.46 h -67.133 l -20.746,63.85 -20.746,-63.85 h -67.129" /><path
             id="path42"
             style="fill:#ffffff;fill-opacity:1;fill-rule:nonzero;stroke:none"
             d="m 485.117,2868.86 54.313,-39.46 -20.746,-63.85 54.312,39.46 54.313,-39.46 -20.746,63.85 54.312,39.46 h -67.133 l -20.746,63.85 -20.746,-63.85 h -67.133" /><path
             id="path44"
             style="fill:#ffffff;fill-opacity:1;fill-rule:nonzero;stroke:none"
             d="m 863.121,2868.86 54.309,-39.46 -20.746,-63.85 54.312,39.46 54.314,-39.46 -20.747,63.85 54.307,39.46 h -67.128 l -20.746,63.85 -20.746,-63.85 h -67.129" /><path
             id="path46"
             style="fill:#ffffff;fill-opacity:1;fill-rule:nonzero;stroke:none"
             d="m 1241.12,2868.86 54.31,-39.46 -20.74,-63.85 54.31,39.46 54.31,-39.46 -20.74,63.85 54.31,39.46 h -67.14 l -20.74,63.85 -20.75,-63.85 h -67.13" /><path
             id="path48"
             style="fill:#ffffff;fill-opacity:1;fill-rule:nonzero;stroke:none"
             d="m 1619.12,2868.86 54.31,-39.46 -20.75,-63.85 54.32,39.46 54.31,-39.46 -20.75,63.85 54.31,39.46 h -67.13 l -20.74,63.85 -20.75,-63.85 h -67.13" /><path
             id="path50"
             style="fill:#ffffff;fill-opacity:1;fill-rule:nonzero;stroke:none"
             d="m 1997.12,2868.86 54.31,-39.46 -20.75,-63.85 54.31,39.46 54.32,-39.46 -20.75,63.85 54.31,39.46 h -67.13 l -20.75,63.85 -20.74,-63.85 h -67.13" /><path
             id="path52"
             style="fill:#ffffff;fill-opacity:1;fill-rule:nonzero;stroke:none"
             d="m 296.117,2706.86 54.309,-39.47 -20.742,-63.84 54.308,39.46 54.313,-39.46 -20.742,63.85 54.308,39.46 h -67.133 l -20.746,63.85 -20.742,-63.85 h -67.133" /><path
             id="path54"
             style="fill:#ffffff;fill-opacity:1;fill-rule:nonzero;stroke:none"
             d="m 674.117,2706.86 54.313,-39.47 -20.746,-63.84 54.312,39.46 54.313,-39.46 -20.746,63.85 54.308,39.46 h -67.129 l -20.746,63.85 -20.746,-63.85 h -67.133" /><path
             id="path56"
             style="fill:#ffffff;fill-opacity:1;fill-rule:nonzero;stroke:none"
             d="m 1052.12,2706.86 54.31,-39.47 -20.74,-63.84 54.31,39.46 54.31,-39.46 -20.75,63.85 54.31,39.46 h -67.13 l -20.74,63.85 -20.75,-63.85 h -67.13" /><path
             id="path58"
             style="fill:#ffffff;fill-opacity:1;fill-rule:nonzero;stroke:none"
             d="m 1430.12,2706.86 54.31,-39.47 -20.75,-63.84 54.31,39.46 54.32,-39.46 -20.75,63.85 54.31,39.46 h -67.13 l -20.75,63.85 -20.74,-63.85 h -67.13" /><path
             id="path60"
             style="fill:#ffffff;fill-opacity:1;fill-rule:nonzero;stroke:none"
             d="m 1808.12,2706.86 54.31,-39.47 -20.75,-63.84 54.31,39.46 54.31,-39.46 -20.74,63.85 54.31,39.46 h -67.13 l -20.75,63.85 -20.74,-63.85 h -67.13" /><path
             id="path62"
             style="fill:#ffffff;fill-opacity:1;fill-rule:nonzero;stroke:none"
             d="m 107.121,2544.86 54.309,-39.47 -20.746,-63.84 54.312,39.45 54.313,-39.45 -20.746,63.84 54.312,39.47 h -67.133 l -20.746,63.84 -20.746,-63.84 h -67.129" /><path
             id="path64"
             style="fill:#ffffff;fill-opacity:1;fill-rule:nonzero;stroke:none"
             d="m 485.117,2544.86 54.313,-39.47 -20.746,-63.84 54.312,39.45 54.313,-39.45 -20.746,63.84 54.312,39.47 h -67.133 l -20.746,63.84 -20.746,-63.84 h -67.133" /><path
             id="path66"
             style="fill:#ffffff;fill-opacity:1;fill-rule:nonzero;stroke:none"
             d="m 863.121,2544.86 54.309,-39.47 -20.746,-63.84 54.312,39.45 54.314,-39.45 -20.747,63.84 54.307,39.47 h -67.128 l -20.746,63.84 -20.746,-63.84 h -67.129" /><path
             id="path68"
             style="fill:#ffffff;fill-opacity:1;fill-rule:nonzero;stroke:none"
             d="m 1241.12,2544.86 54.31,-39.47 -20.74,-63.84 54.31,39.45 54.31,-39.45 -20.74,63.84 54.31,39.47 h -67.14 l -20.74,63.84 -20.75,-63.84 h -67.13" /><path
             id="path70"
             style="fill:#ffffff;fill-opacity:1;fill-rule:nonzero;stroke:none"
             d="m 1619.12,2544.86 54.31,-39.47 -20.75,-63.84 54.32,39.45 54.31,-39.45 -20.75,63.84 54.31,39.47 h -67.13 l -20.74,63.84 -20.75,-63.84 h -67.13" /><path
             id="path72"
             style="fill:#ffffff;fill-opacity:1;fill-rule:nonzero;stroke:none"
             d="m 1997.12,2544.86 54.31,-39.47 -20.75,-63.84 54.31,39.45 54.32,-39.45 -20.75,63.84 54.31,39.47 h -67.13 l -20.75,63.84 -20.74,-63.84 h -67.13" /><path
             id="path74"
             style="fill:#ffffff;fill-opacity:1;fill-rule:nonzero;stroke:none"
             d="m 300.781,2382.32 54.309,-39.46 -20.742,-63.85 54.308,39.46 54.313,-39.46 -20.746,63.85 54.312,39.46 h -67.133 l -20.746,63.85 -20.746,-63.85 h -67.129" /><path
             id="path76"
             style="fill:#ffffff;fill-opacity:1;fill-rule:nonzero;stroke:none"
             d="m 678.781,2382.32 54.313,-39.46 -20.746,-63.85 54.312,39.46 54.313,-39.46 -20.746,63.85 54.308,39.46 h -67.129 l -20.746,63.85 -20.746,-63.85 h -67.133" /><path
             id="path78"
             style="fill:#ffffff;fill-opacity:1;fill-rule:nonzero;stroke:none"
             d="m 1056.78,2382.32 54.31,-39.46 -20.74,-63.85 54.31,39.46 54.31,-39.46 -20.74,63.85 54.31,39.46 h -67.13 l -20.75,63.85 -20.74,-63.85 h -67.14" /><path
             id="path80"
             style="fill:#ffffff;fill-opacity:1;fill-rule:nonzero;stroke:none"
             d="m 1434.78,2382.32 54.31,-39.46 -20.74,-63.85 54.31,39.46 54.31,-39.46 -20.75,63.85 54.32,39.46 h -67.14 l -20.74,63.85 -20.75,-63.85 h -67.13" /><path
             id="path82"
             style="fill:#ffffff;fill-opacity:1;fill-rule:nonzero;stroke:none"
             d="m 1812.78,2382.32 54.31,-39.46 -20.75,-63.85 54.32,39.46 54.31,-39.46 -20.75,63.85 54.31,39.46 h -67.13 l -20.74,63.85 -20.75,-63.85 h -67.13" /><path
             id="path84"
             style="fill:#ffffff;fill-opacity:1;fill-rule:nonzero;stroke:none"
             d="m 112.855,2221.68 54.309,-39.46 -20.742,-63.85 54.308,39.46 54.313,-39.46 -20.742,63.85 54.308,39.46 h -67.132 l -20.747,63.85 -20.742,-63.85 h -67.133" /><path
             id="path86"
             style="fill:#ffffff;fill-opacity:1;fill-rule:nonzero;stroke:none"
             d="m 490.855,2221.68 54.309,-39.46 -20.746,-63.85 54.312,39.46 54.313,-39.46 -20.746,63.85 54.312,39.46 h -67.132 l -20.747,63.85 -20.746,-63.85 h -67.129" /><path
             id="path88"
             style="fill:#ffffff;fill-opacity:1;fill-rule:nonzero;stroke:none"
             d="m 868.855,2221.68 54.309,-39.46 -20.742,-63.85 54.308,39.46 54.31,-39.46 -20.739,63.85 54.309,39.46 h -67.133 l -20.747,63.85 -20.742,-63.85 h -67.133" /><path
             id="path90"
             style="fill:#ffffff;fill-opacity:1;fill-rule:nonzero;stroke:none"
             d="m 1246.86,2221.68 54.31,-39.46 -20.75,-63.85 54.31,39.46 54.32,-39.46 -20.75,63.85 54.31,39.46 h -67.13 l -20.75,63.85 -20.74,-63.85 h -67.13" /><path
             id="path92"
             style="fill:#ffffff;fill-opacity:1;fill-rule:nonzero;stroke:none"
             d="m 1624.85,2221.68 54.31,-39.46 -20.74,-63.85 54.31,39.46 54.31,-39.46 -20.74,63.85 54.31,39.46 h -67.13 l -20.75,63.85 -20.74,-63.85 h -67.14" /><path
             id="path94"
             style="fill:#ffffff;fill-opacity:1;fill-rule:nonzero;stroke:none"
             d="m 2002.85,2221.68 54.31,-39.46 -20.74,-63.85 54.31,39.46 54.31,-39.46 -20.74,63.85 54.31,39.46 h -67.13 l -20.75,63.85 -20.75,-63.85 h -67.13" /><path
             id="path96"
             style="fill:#ffffff;fill-opacity:1;fill-rule:nonzero;stroke:none"
             d="m 116.398,1902.8 54.309,-39.46 -20.746,-63.85 54.312,39.46 54.313,-39.46 -20.746,63.85 54.312,39.46 H 225.02 l -20.747,63.85 -20.746,-63.85 h -67.129" /><path
             id="path98"
             style="fill:#ffffff;fill-opacity:1;fill-rule:nonzero;stroke:none"
             d="m 494.395,1902.8 54.312,-39.46 -20.746,-63.85 54.312,39.46 54.313,-39.46 -20.746,63.85 54.308,39.46 H 603.02 l -20.747,63.85 -20.746,-63.85 h -67.132" /><path
             id="path100"
             style="fill:#ffffff;fill-opacity:1;fill-rule:nonzero;stroke:none"
             d="m 872.398,1902.8 54.309,-39.46 -20.746,-63.85 54.312,39.46 54.317,-39.46 -20.75,63.85 54.31,39.46 h -67.13 l -20.747,63.85 -20.746,-63.85 h -67.129" /><path
             id="path102"
             style="fill:#ffffff;fill-opacity:1;fill-rule:nonzero;stroke:none"
             d="m 1250.4,1902.8 54.31,-39.46 -20.75,-63.85 54.32,39.46 54.31,-39.46 -20.75,63.85 54.31,39.46 h -67.13 l -20.74,63.85 -20.75,-63.85 h -67.13" /><path
             id="path104"
             style="fill:#ffffff;fill-opacity:1;fill-rule:nonzero;stroke:none"
             d="m 1628.4,1902.8 54.31,-39.46 -20.75,-63.85 54.31,39.46 54.32,-39.46 -20.75,63.85 54.31,39.46 h -67.13 l -20.75,63.85 -20.74,-63.85 h -67.13" /><path
             id="path106"
             style="fill:#ffffff;fill-opacity:1;fill-rule:nonzero;stroke:none"
             d="m 2006.39,1902.8 54.31,-39.46 -20.74,-63.85 54.31,39.46 54.31,-39.46 -20.74,63.85 54.31,39.46 h -67.13 l -20.75,63.85 -20.74,-63.85 h -67.14" /><path
             id="path108"
             style="fill:#ffffff;fill-opacity:1;fill-rule:nonzero;stroke:none"
             d="m 111.781,1580.18 54.309,-39.46 -20.746,-63.85 54.312,39.46 54.313,-39.46 -20.746,63.85 54.312,39.46 h -67.133 l -20.746,63.85 -20.746,-63.85 h -67.129" /><path
             id="path110"
             style="fill:#ffffff;fill-opacity:1;fill-rule:nonzero;stroke:none"
             d="m 489.777,1580.18 54.313,-39.46 -20.746,-63.85 54.312,39.46 54.313,-39.46 -20.746,63.85 54.308,39.46 h -67.129 l -20.746,63.85 -20.746,-63.85 h -67.133" /><path
             id="path112"
             style="fill:#ffffff;fill-opacity:1;fill-rule:nonzero;stroke:none"
             d="m 867.781,1580.18 54.309,-39.46 -20.746,-63.85 54.312,39.46 54.314,-39.46 -20.747,63.85 54.307,39.46 h -67.128 l -20.746,63.85 -20.746,-63.85 h -67.129" /><path
             id="path114"
             style="fill:#ffffff;fill-opacity:1;fill-rule:nonzero;stroke:none"
             d="m 1245.78,1580.18 54.31,-39.46 -20.74,-63.85 54.31,39.46 54.31,-39.46 -20.74,63.85 54.31,39.46 h -67.14 l -20.74,63.85 -20.75,-63.85 h -67.13" /><path
             id="path116"
             style="fill:#ffffff;fill-opacity:1;fill-rule:nonzero;stroke:none"
             d="m 1623.78,1580.18 54.31,-39.46 -20.75,-63.85 54.32,39.46 54.31,-39.46 -20.75,63.85 54.31,39.46 h -67.13 l -20.74,63.85 -20.75,-63.85 h -67.13" /><path
             id="path118"
             style="fill:#ffffff;fill-opacity:1;fill-rule:nonzero;stroke:none"
             d="m 2001.78,1580.18 54.31,-39.46 -20.75,-63.85 54.31,39.46 54.32,-39.46 -20.75,63.85 54.31,39.46 h -67.13 l -20.75,63.85 -20.74,-63.85 h -67.13" /><path
             id="path120"
             style="fill:#ffffff;fill-opacity:1;fill-rule:nonzero;stroke:none"
             d="m 301.902,2063.84 54.313,-39.46 -20.746,-63.85 54.312,39.46 54.313,-39.46 -20.746,63.85 54.308,39.46 h -67.133 l -20.742,63.85 -20.746,-63.85 h -67.133" /><path
             id="path122"
             style="fill:#ffffff;fill-opacity:1;fill-rule:nonzero;stroke:none"
             d="m 679.902,2063.84 54.313,-39.46 -20.746,-63.85 54.312,39.46 54.313,-39.46 -20.746,63.85 54.312,39.46 h -67.133 l -20.746,63.85 -20.746,-63.85 h -67.133" /><path
             id="path124"
             style="fill:#ffffff;fill-opacity:1;fill-rule:nonzero;stroke:none"
             d="m 1057.91,2063.84 54.31,-39.46 -20.75,-63.85 54.31,39.46 54.32,-39.46 -20.75,63.85 54.31,39.46 h -67.13 l -20.75,63.85 -20.74,-63.85 h -67.13" /><path
             id="path126"
             style="fill:#ffffff;fill-opacity:1;fill-rule:nonzero;stroke:none"
             d="m 1435.9,2063.84 54.31,-39.46 -20.74,-63.85 54.31,39.46 54.31,-39.46 -20.74,63.85 54.31,39.46 h -67.13 l -20.75,63.85 -20.75,-63.85 h -67.13" /><path
             id="path128"
             style="fill:#ffffff;fill-opacity:1;fill-rule:nonzero;stroke:none"
             d="m 1813.9,2063.84 54.31,-39.46 -20.74,-63.85 54.31,39.46 54.31,-39.46 -20.75,63.85 54.32,39.46 h -67.14 l -20.74,63.85 -20.75,-63.85 h -67.13" /><path
             id="path130"
             style="fill:#ffffff;fill-opacity:1;fill-rule:nonzero;stroke:none"
             d="m 300.785,1741.72 54.309,-39.46 -20.746,-63.85 54.312,39.46 54.313,-39.46 -20.746,63.85 54.312,39.46 h -67.133 l -20.746,63.85 -20.746,-63.85 h -67.129" /><path
             id="path132"
             style="fill:#ffffff;fill-opacity:1;fill-rule:nonzero;stroke:none"
             d="m 678.785,1741.72 54.309,-39.46 -20.742,-63.85 54.308,39.46 54.313,-39.46 -20.743,63.85 54.309,39.46 h -67.133 l -20.746,63.85 -20.742,-63.85 h -67.133" /><path
             id="path134"
             style="fill:#ffffff;fill-opacity:1;fill-rule:nonzero;stroke:none"
             d="m 1056.79,1741.72 54.31,-39.46 -20.75,-63.85 54.31,39.46 54.32,-39.46 -20.75,63.85 54.31,39.46 h -67.13 l -20.75,63.85 -20.74,-63.85 h -67.13" /><path
             id="path136"
             style="fill:#ffffff;fill-opacity:1;fill-rule:nonzero;stroke:none"
             d="m 1434.78,1741.72 54.31,-39.46 -20.74,-63.85 54.31,39.46 54.31,-39.46 -20.74,63.85 54.31,39.46 h -67.13 l -20.75,63.85 -20.74,-63.85 h -67.14" /><path
             id="path138"
             style="fill:#ffffff;fill-opacity:1;fill-rule:nonzero;stroke:none"
             d="m 1812.78,1741.72 54.31,-39.46 -20.74,-63.85 54.31,39.46 54.31,-39.46 -20.74,63.85 54.31,39.46 h -67.14 l -20.74,63.85 -20.75,-63.85 h -67.13" /></g></g></g></g></svg>